<?xml version="1.0" encoding="utf-8"?>
<svg x="0pt" y="0pt" width="1024pt" height="256pt" viewBox="0 0 1024 256" xmlns="http://www.w3.org/2000/svg" xmlns:xlink="http://www.w3.org/1999/xlink">
  <g id="1">
    <title>Layer 1</title>
    <g id="2">
      <title>Text</title>
      <defs>
        <title>Shape 364</title>
        <g id="3">
          <defs>
            <path id="4" d="M218.507,157.684 C218.507,148.684,215.799,141.559,210.382,136.309 C204.966,131.059,196.757,126.518,185.757,122.684 C181.257,121.184,177.299,119.684,173.882,118.184 C170.466,116.684,167.549,115.018,165.132,113.184 C162.716,111.351,160.882,109.184,159.632,106.684 C158.382,104.184,157.757,101.268,157.757,97.9342 C157.757,92.1009,159.882,87.0592,164.132,82.8092 C168.382,78.5592,174.674,76.4342,183.007,76.4342 C190.007,76.4342,195.674,77.3925,200.007,79.3092 C204.341,81.2259,207.507,82.8509,209.507,84.1842 C209.507,84.1842,214.257,74.1842,214.257,74.1842 C210.757,71.8509,206.507,69.9342,201.507,68.4342 C196.507,66.9342,191.091,66.1842,185.257,66.1842 C178.757,66.1842,173.049,67.1009,168.132,68.9342 C163.216,70.7675,159.091,73.2675,155.757,76.4342 C152.424,79.6009,149.924,83.1842,148.257,87.1842 C146.591,91.1842,145.757,95.2675,145.757,99.4342 C145.757,114.101,156.591,124.934,178.257,131.934 C187.757,134.934,194.841,138.393,199.507,142.309 C204.174,146.226,206.507,151.684,206.507,158.684 C206.507,164.851,204.091,170.268,199.257,174.934 C194.424,179.601,186.757,181.934,176.257,181.934 C170.257,181.934,164.674,181.018,159.507,179.184 C154.341,177.351,149.924,175.268,146.257,172.934 C146.257,172.934,141.757,183.434,141.757,183.434 C146.257,186.101,151.382,188.226,157.132,189.809 C162.882,191.393,168.924,192.184,175.257,192.184 C182.091,192.184,188.174,191.309,193.507,189.559 C198.841,187.809,203.382,185.393,207.132,182.309 C210.882,179.226,213.716,175.559,215.632,171.309 C217.549,167.059,218.507,162.518,218.507,157.684 z"/>
          </defs>
          <use xlink:href="#4" style="fill:#000000;fill-opacity:1;fill-rule:evenodd;opacity:1;stroke:none;"/>
          <use xlink:href="#4" style="fill:none;opacity:1;stroke:#000000;stroke-linecap:butt;stroke-linejoin:miter;stroke-miterlimit:10;stroke-opacity:1;stroke-width:7;"/>
        </g>
      </defs>
      <use xlink:href="#3"/>
      <defs>
        <title>Shape 365</title>
        <g id="5">
          <defs>
            <path id="6" d="M308.507,69.1842 C308.507,69.1842,270.507,69.1842,270.507,69.1842 C270.507,69.1842,270.507,42.6842,270.507,42.6842 C270.507,42.6842,258.257,46.4342,258.257,46.4342 C258.257,46.4342,258.257,69.1842,258.257,69.1842 C258.257,69.1842,236.257,69.1842,236.257,69.1842 C236.257,69.1842,233.757,78.9342,233.757,78.9342 C233.757,78.9342,249.257,78.9342,249.257,78.9342 C249.257,78.9342,258.257,78.9342,258.257,78.9342 C258.257,78.9342,258.257,154.184,258.257,154.184 C258.257,159.851,258.841,165.268,260.007,170.434 C261.174,175.601,263.257,179.851,266.257,183.184 C271.257,189.184,278.674,192.184,288.507,192.184 C292.507,192.184,296.049,191.851,299.132,191.184 C302.216,190.518,304.841,189.768,307.007,188.934 C307.007,188.934,305.507,179.434,305.507,179.434 C303.674,180.101,301.507,180.643,299.007,181.059 C296.507,181.476,293.424,181.684,289.757,181.684 C282.424,181.684,277.382,179.184,274.632,174.184 C271.882,169.184,270.507,163.018,270.507,155.684 C270.507,155.684,270.507,78.9342,270.507,78.9342 C270.507,78.9342,306.007,78.9342,306.007,78.9342 C306.007,78.9342,308.507,69.1842,308.507,69.1842 z"/>
          </defs>
          <use xlink:href="#6" style="fill:#000000;fill-opacity:1;fill-rule:evenodd;opacity:1;stroke:none;"/>
          <use xlink:href="#6" style="fill:none;opacity:1;stroke:#000000;stroke-linecap:butt;stroke-linejoin:miter;stroke-miterlimit:10;stroke-opacity:1;stroke-width:7;"/>
        </g>
      </defs>
      <use xlink:href="#5"/>
      <defs>
        <title>Shape 366</title>
        <g id="7">
          <defs>
            <path id="8" d="M392.007,78.1842 C392.007,78.1842,392.007,66.9342,392.007,66.9342 C390.174,66.4342,388.257,66.1842,386.257,66.1842 C377.257,66.1842,369.632,68.8925,363.382,74.3092 C357.132,79.7259,352.507,86.6842,349.507,95.1842 C349.507,95.1842,348.757,95.1842,348.757,95.1842 C348.757,95.1842,348.257,69.1842,348.257,69.1842 C348.257,69.1842,337.007,69.1842,337.007,69.1842 C337.341,75.6842,337.591,82.1425,337.757,88.5592 C337.924,94.9759,338.007,101.434,338.007,107.934 C338.007,107.934,338.007,189.184,338.007,189.184 C338.007,189.184,350.257,189.184,350.257,189.184 C350.257,189.184,350.257,124.184,350.257,124.184 C350.257,120.184,350.674,116.268,351.507,112.434 C353.507,101.934,357.466,93.5175,363.382,87.1842 C369.299,80.8509,376.507,77.6842,385.007,77.6842 C386.341,77.6842,387.507,77.6842,388.507,77.6842 C389.674,77.6842,390.841,77.8509,392.007,78.1842 z"/>
          </defs>
          <use xlink:href="#8" style="fill:#000000;fill-opacity:1;fill-rule:evenodd;opacity:1;stroke:none;"/>
          <use xlink:href="#8" style="fill:none;opacity:1;stroke:#000000;stroke-linecap:butt;stroke-linejoin:miter;stroke-miterlimit:10;stroke-opacity:1;stroke-width:7;"/>
        </g>
      </defs>
      <use xlink:href="#7"/>
      <defs>
        <title>Shape 367</title>
        <g id="9">
          <defs>
            <path id="10" d="M485.007,189.184 C484.174,184.351,483.216,179.518,482.132,174.684 C481.049,169.851,480.507,165.018,480.507,160.184 C480.507,160.184,480.507,116.684,480.507,116.684 C480.507,112.018,480.049,106.726,479.132,100.809 C478.216,94.8925,476.216,89.3925,473.132,84.3092 C470.049,79.2259,465.507,74.9342,459.507,71.4342 C453.507,67.9342,445.424,66.1842,435.257,66.1842 C431.924,66.1842,428.507,66.4342,425.007,66.9342 C425.007,66.9342,425.132,67.6425,425.382,69.0592 C425.632,70.4759,426.007,73.1009,426.507,76.9342 C427.841,76.7675,429.132,76.6425,430.382,76.5592 C431.632,76.4759,432.924,76.4342,434.257,76.4342 C442.257,76.4342,448.507,77.8509,453.007,80.6842 C457.507,83.5175,460.882,86.8925,463.132,90.8092 C465.382,94.7259,466.799,98.7259,467.382,102.809 C467.966,106.893,468.257,110.018,468.257,112.184 C468.257,112.184,468.257,114.934,468.257,114.934 C440.257,114.601,419.716,118.476,406.632,126.559 C393.549,134.643,387.007,145.518,387.007,159.184 C387.007,163.684,388.049,168.268,390.132,172.934 C392.216,177.601,395.591,181.601,400.257,184.934 C402.591,186.601,405.174,188.018,408.007,189.184 C410.841,190.351,414.007,191.184,417.507,191.684 C417.507,191.684,418.007,191.684,418.007,191.684 C419.174,191.851,420.341,191.976,421.507,192.059 C422.674,192.143,423.924,192.184,425.257,192.184 C430.757,192.184,435.841,191.518,440.507,190.184 C445.174,188.851,449.341,187.101,453.007,184.934 C456.674,182.768,459.841,180.434,462.507,177.934 C465.174,175.434,467.257,173.018,468.757,170.684 C468.757,170.684,469.257,170.684,469.257,170.684 C469.257,170.684,473.757,191.684,473.757,191.684 C473.757,191.684,485.007,189.184,485.007,189.184 z M468.257,150.684 C468.257,152.851,467.757,155.184,466.757,157.684 C465.591,160.351,463.924,163.143,461.757,166.059 C459.591,168.976,456.841,171.601,453.507,173.934 C450.174,176.268,446.257,178.226,441.757,179.809 C437.257,181.393,432.091,182.184,426.257,182.184 C419.257,182.184,413.132,180.101,407.882,175.934 C402.632,171.768,400.007,165.434,400.007,156.934 C400.007,149.934,402.091,144.309,406.257,140.059 C410.424,135.809,415.757,132.559,422.257,130.309 C428.757,128.059,436.049,126.601,444.132,125.934 C452.216,125.268,460.257,125.018,468.257,125.184 C468.257,125.184,468.257,150.684,468.257,150.684 z"/>
          </defs>
          <use xlink:href="#10" style="fill:#000000;fill-opacity:1;fill-rule:evenodd;opacity:1;stroke:none;"/>
          <use xlink:href="#10" style="fill:none;opacity:1;stroke:#000000;stroke-linecap:butt;stroke-linejoin:miter;stroke-miterlimit:10;stroke-opacity:1;stroke-width:7;"/>
        </g>
      </defs>
      <use xlink:href="#9"/>
      <defs>
        <title>Shape 368</title>
        <g id="11">
          <defs>
            <path id="12" d="M577.757,69.1842 C577.757,69.1842,539.757,69.1842,539.757,69.1842 C539.757,69.1842,539.757,42.6842,539.757,42.6842 C539.757,42.6842,527.507,46.4342,527.507,46.4342 C527.507,46.4342,527.507,69.1842,527.507,69.1842 C527.507,69.1842,505.507,69.1842,505.507,69.1842 C505.507,69.1842,503.007,78.9342,503.007,78.9342 C503.007,78.9342,518.507,78.9342,518.507,78.9342 C518.507,78.9342,527.507,78.9342,527.507,78.9342 C527.507,78.9342,527.507,154.184,527.507,154.184 C527.507,159.851,528.091,165.268,529.257,170.434 C530.424,175.601,532.507,179.851,535.507,183.184 C540.507,189.184,547.924,192.184,557.757,192.184 C561.757,192.184,565.299,191.851,568.382,191.184 C571.466,190.518,574.091,189.768,576.257,188.934 C576.257,188.934,574.757,179.434,574.757,179.434 C572.924,180.101,570.757,180.643,568.257,181.059 C565.757,181.476,562.674,181.684,559.007,181.684 C551.674,181.684,546.632,179.184,543.882,174.184 C541.132,169.184,539.757,163.018,539.757,155.684 C539.757,155.684,539.757,78.9342,539.757,78.9342 C539.757,78.9342,575.257,78.9342,575.257,78.9342 C575.257,78.9342,577.757,69.1842,577.757,69.1842 z"/>
          </defs>
          <use xlink:href="#12" style="fill:#000000;fill-opacity:1;fill-rule:evenodd;opacity:1;stroke:none;"/>
          <use xlink:href="#12" style="fill:none;opacity:1;stroke:#000000;stroke-linecap:butt;stroke-linejoin:miter;stroke-miterlimit:10;stroke-opacity:1;stroke-width:7;"/>
        </g>
      </defs>
      <use xlink:href="#11"/>
      <defs>
        <title>Shape 369</title>
        <g id="13">
          <defs>
            <path id="14" d="M693.757,189.184 C692.924,184.351,691.966,179.518,690.882,174.684 C689.799,169.851,689.257,165.018,689.257,160.184 C689.257,160.184,689.257,116.684,689.257,116.684 C689.257,112.018,688.799,106.726,687.882,100.809 C686.966,94.8925,684.966,89.3925,681.882,84.3092 C678.799,79.2259,674.257,74.9342,668.257,71.4342 C662.257,67.9342,654.174,66.1842,644.007,66.1842 C640.674,66.1842,637.257,66.4342,633.757,66.9342 C633.757,66.9342,633.882,67.6425,634.132,69.0592 C634.382,70.4759,634.757,73.1009,635.257,76.9342 C636.591,76.7675,637.882,76.6425,639.132,76.5592 C640.382,76.4759,641.674,76.4342,643.007,76.4342 C651.007,76.4342,657.257,77.8509,661.757,80.6842 C666.257,83.5175,669.632,86.8925,671.882,90.8092 C674.132,94.7259,675.549,98.7259,676.132,102.809 C676.716,106.893,677.007,110.018,677.007,112.184 C677.007,112.184,677.007,114.934,677.007,114.934 C649.007,114.601,628.466,118.476,615.382,126.559 C602.299,134.643,595.757,145.518,595.757,159.184 C595.757,163.684,596.799,168.268,598.882,172.934 C600.966,177.601,604.341,181.601,609.007,184.934 C611.341,186.601,613.924,188.018,616.757,189.184 C619.591,190.351,622.757,191.184,626.257,191.684 C626.257,191.684,626.757,191.684,626.757,191.684 C627.924,191.851,629.091,191.976,630.257,192.059 C631.424,192.143,632.674,192.184,634.007,192.184 C639.507,192.184,644.591,191.518,649.257,190.184 C653.924,188.851,658.091,187.101,661.757,184.934 C665.424,182.768,668.591,180.434,671.257,177.934 C673.924,175.434,676.007,173.018,677.507,170.684 C677.507,170.684,678.007,170.684,678.007,170.684 C678.007,170.684,682.507,191.684,682.507,191.684 C682.507,191.684,693.757,189.184,693.757,189.184 z M677.007,150.684 C677.007,152.851,676.507,155.184,675.507,157.684 C674.341,160.351,672.674,163.143,670.507,166.059 C668.341,168.976,665.591,171.601,662.257,173.934 C658.924,176.268,655.007,178.226,650.507,179.809 C646.007,181.393,640.841,182.184,635.007,182.184 C628.007,182.184,621.882,180.101,616.632,175.934 C611.382,171.768,608.757,165.434,608.757,156.934 C608.757,149.934,610.841,144.309,615.007,140.059 C619.174,135.809,624.507,132.559,631.007,130.309 C637.507,128.059,644.799,126.601,652.882,125.934 C660.966,125.268,669.007,125.018,677.007,125.184 C677.007,125.184,677.007,150.684,677.007,150.684 z"/>
          </defs>
          <use xlink:href="#14" style="fill:#000000;fill-opacity:1;fill-rule:evenodd;opacity:1;stroke:none;"/>
          <use xlink:href="#14" style="fill:none;opacity:1;stroke:#000000;stroke-linecap:butt;stroke-linejoin:miter;stroke-miterlimit:10;stroke-opacity:1;stroke-width:7;"/>
        </g>
      </defs>
      <use xlink:href="#13"/>
      <defs>
        <title>Shape 370</title>
        <g id="15">
          <defs>
            <path id="16" d="M767.257,180.684 C764.257,180.684,760.466,179.851,755.882,178.184 C751.299,176.518,747.507,174.101,744.507,170.934 C742.674,169.101,741.132,166.976,739.882,164.559 C738.632,162.143,737.632,159.059,736.882,155.309 C736.132,151.559,735.549,146.851,735.132,141.184 C734.716,135.518,734.507,128.434,734.507,119.934 C734.507,119.934,734.507,10.1842,734.507,10.1842 C734.507,10.1842,722.257,10.1842,722.257,10.1842 C722.257,10.1842,722.257,128.934,722.257,128.934 C722.257,139.434,722.882,148.893,724.132,157.309 C725.382,165.726,728.841,172.934,734.507,178.934 C736.841,181.434,739.549,183.518,742.632,185.184 C745.716,186.851,748.757,188.143,751.757,189.059 C754.757,189.976,757.507,190.643,760.007,191.059 C762.507,191.476,764.507,191.684,766.007,191.684 C766.007,191.684,767.257,180.684,767.257,180.684 z"/>
          </defs>
          <use xlink:href="#16" style="fill:#000000;fill-opacity:1;fill-rule:evenodd;opacity:1;stroke:none;"/>
        </g>
      </defs>
      <use xlink:href="#15"/>
      <defs>
        <title>Shape 371</title>
        <g id="17">
          <defs>
            <path id="18" d="M882.257,69.1842 C882.257,69.1842,869.007,69.1842,869.007,69.1842 C869.007,69.1842,835.507,148.434,835.507,148.434 C833.507,153.268,831.674,157.893,830.007,162.309 C828.341,166.726,826.841,170.851,825.507,174.684 C825.507,174.684,825.007,174.684,825.007,174.684 C823.841,170.851,822.382,166.643,820.632,162.059 C818.882,157.476,817.091,153.268,815.257,149.434 C815.257,149.434,779.507,69.1842,779.507,69.1842 C779.507,69.1842,766.257,69.1842,766.257,69.1842 C766.257,69.1842,816.007,180.684,816.007,180.684 C817.174,183.184,817.757,185.018,817.757,186.184 C817.757,187.184,817.257,188.768,816.257,190.934 C812.424,199.434,808.424,206.268,804.257,211.434 C800.091,216.601,796.424,220.518,793.257,223.184 C789.424,226.518,785.549,229.101,781.632,230.934 C777.716,232.768,774.257,234.101,771.257,234.934 C771.257,234.934,774.507,245.184,774.507,245.184 C775.841,244.851,778.549,243.934,782.632,242.434 C786.716,240.934,791.341,238.268,796.507,234.434 C800.507,231.601,804.216,228.226,807.632,224.309 C811.049,220.393,814.466,215.726,817.882,210.309 C821.299,204.893,824.757,198.559,828.257,191.309 C831.757,184.059,835.591,175.684,839.757,166.184 C839.757,166.184,882.257,69.1842,882.257,69.1842 z"/>
          </defs>
          <use xlink:href="#18" style="fill:#000000;fill-opacity:1;fill-rule:evenodd;opacity:1;stroke:none;"/>
        </g>
      </defs>
      <use xlink:href="#17"/>
    </g>
  </g>
</svg>
